<?xml version="1.0" encoding="utf-8"?>
<!-- Generator: Adobe Illustrator 16.0.0, SVG Export Plug-In . SVG Version: 6.00 Build 0)  -->
<!DOCTYPE svg PUBLIC "-//W3C//DTD SVG 1.1//EN" "http://www.w3.org/Graphics/SVG/1.1/DTD/svg11.dtd">
<svg version="1.1" id="Layer_1" xmlns="http://www.w3.org/2000/svg" xmlns:xlink="http://www.w3.org/1999/xlink" x="0px" y="0px"
	 width="623.913px" height="197.102px" viewBox="0 0 623.913 197.102" enable-background="new 0 0 623.913 197.102"
	 xml:space="preserve">
<g>
	<g>
		<path fill-rule="evenodd" clip-rule="evenodd" fill="#25526A" d="M164.427,142.098l7.461-103.109h418.64
			c8.55,0,13.83,3.272,15.845,9.811c0.614,2.011,0.923,4.33,0.923,6.956v69.58c0,11.176-5.59,16.763-16.768,16.763H164.427z
			 M45.054,84.593V55.755c0-2.626,0.308-4.945,0.922-6.956c2.013-6.539,7.292-9.811,15.845-9.811h67.02L45.054,84.593z
			 M45.054,99.389c38.509,1.744,68.925,15.982,91.246,42.708H61.821c-11.178,0-16.767-5.587-16.767-16.763V99.389z"/>
		<path fill-rule="evenodd" clip-rule="evenodd" fill="#F5C21E" d="M136.3,142.098c-22.321-26.727-52.737-40.965-91.246-42.708
			c-9.13-0.407-18.713-0.112-28.753,0.88l28.753-15.676l83.787-45.604l44.805-24.393l-1.758,24.393l-7.461,103.109l-3.102,43.174
			C154.592,168.402,146.251,154.009,136.3,142.098z M151.518,122.063V69.084h14.503V54.415h-46.442v14.669h14.25v52.978H151.518z"/>
		<polygon fill-rule="evenodd" clip-rule="evenodd" fill="#FFFFFF" points="151.518,122.063 133.829,122.063 133.829,69.084 
			119.579,69.084 119.579,54.415 166.021,54.415 166.021,69.084 151.518,69.084 		"/>
	</g>
	<g>
		<path fill="#FFFFFF" d="M181.719,113.846V76.828h33.046v6.466h-26.63v24.084h26.681v6.467H181.719z M192.87,97.755v-5.448h20.52
			v5.448H192.87z"/>
		<path fill="#FFFFFF" d="M235.59,113.846c-2.58,0-4.964-0.483-7.154-1.451c-2.19-0.968-4.091-2.291-5.703-3.972
			c-1.613-1.681-2.869-3.674-3.768-5.982c-0.9-2.309-1.349-4.804-1.349-7.485c0-2.715,0.449-5.194,1.349-7.434
			c0.899-2.241,2.155-4.15,3.768-5.729c1.612-1.579,3.513-2.8,5.703-3.666c2.189-0.866,4.574-1.298,7.154-1.298h20.062v6.466H235.59
			c-1.664,0-3.2,0.298-4.608,0.891c-1.409,0.594-2.623,1.418-3.641,2.47c-1.018,1.053-1.816,2.309-2.393,3.768
			c-0.578,1.46-0.866,3.072-0.866,4.837c0,1.731,0.288,3.344,0.866,4.837c0.577,1.494,1.375,2.775,2.393,3.845
			c1.019,1.069,2.232,1.909,3.641,2.521c1.408,0.61,2.944,0.916,4.608,0.916h20.062v6.467H235.59z"/>
		<path fill="#FFFFFF" d="M265.225,86.757v27.088h-6.161V80.24c0-1.188,0.297-2.13,0.891-2.826c0.593-0.695,1.4-1.044,2.418-1.044
			c0.475,0,0.933,0.102,1.375,0.306c0.44,0.204,0.899,0.543,1.375,1.018l26.121,25.918V76.522h6.161v33.912
			c0,1.222-0.297,2.173-0.891,2.851c-0.595,0.679-1.367,1.019-2.317,1.019c-1.053,0-2.037-0.458-2.954-1.375L265.225,86.757z"/>
		<path fill="#FFFFFF" d="M318.891,113.846c-2.58,0-4.964-0.483-7.153-1.451c-2.19-0.968-4.091-2.291-5.703-3.972
			c-1.613-1.681-2.869-3.674-3.768-5.982c-0.9-2.309-1.349-4.804-1.349-7.485c0-2.715,0.449-5.194,1.349-7.434
			c0.899-2.241,2.155-4.15,3.768-5.729c1.612-1.579,3.513-2.8,5.703-3.666c2.189-0.866,4.573-1.298,7.153-1.298h9.013
			c2.682,0,5.135,0.441,7.358,1.324c2.223,0.883,4.132,2.122,5.728,3.717c1.596,1.596,2.834,3.505,3.718,5.728
			c0.882,2.224,1.323,4.677,1.323,7.358c0,2.682-0.45,5.177-1.349,7.485c-0.9,2.309-2.156,4.302-3.769,5.982
			s-3.521,3.004-5.729,3.972s-4.633,1.451-7.281,1.451H318.891z M327.904,107.379c1.697,0,3.259-0.306,4.685-0.916
			c1.426-0.611,2.656-1.451,3.691-2.521s1.842-2.351,2.419-3.845c0.577-1.493,0.866-3.106,0.866-4.837
			c0-1.731-0.289-3.335-0.866-4.812s-1.384-2.741-2.419-3.793c-1.035-1.052-2.266-1.875-3.691-2.47
			c-1.426-0.593-2.987-0.891-4.685-0.891h-9.013c-1.663,0-3.199,0.298-4.607,0.891c-1.409,0.594-2.623,1.418-3.641,2.47
			c-1.018,1.053-1.816,2.309-2.393,3.768c-0.578,1.46-0.866,3.072-0.866,4.837c0,1.731,0.288,3.344,0.866,4.837
			c0.577,1.494,1.375,2.775,2.393,3.845c1.019,1.069,2.232,1.909,3.641,2.521c1.408,0.61,2.944,0.916,4.607,0.916H327.904z"/>
		<path fill="#FFFFFF" d="M342.162,76.828h7.893l16.803,28.515l16.752-28.515h7.435l-21.335,35.439
			c-0.374,0.645-0.814,1.154-1.324,1.527c-0.509,0.373-1.104,0.56-1.782,0.56c-0.713,0-1.323-0.187-1.833-0.56
			c-0.509-0.373-0.95-0.883-1.323-1.527L342.162,76.828z"/>
		<path fill="#FFFFFF" d="M420.423,113.846l-5.55-9.318h-17.516l3.055-5.244h11.354l-8.248-13.85l-16.804,28.413h-7.383
			l21.284-35.439c0.373-0.644,0.814-1.153,1.323-1.527c0.51-0.373,1.12-0.56,1.833-0.56s1.315,0.187,1.808,0.56
			c0.492,0.374,0.925,0.883,1.299,1.527l21.335,35.439H420.423z"/>
		<path fill="#FFFFFF" d="M435.801,113.846V83.294h-14.054v-6.466h34.573v6.466h-14.054v30.551H435.801z"/>
		<path fill="#FFFFFF" d="M474.956,113.846c-2.58,0-4.964-0.483-7.153-1.451s-4.091-2.291-5.703-3.972s-2.869-3.674-3.768-5.982
			c-0.9-2.309-1.35-4.804-1.35-7.485c0-2.715,0.449-5.194,1.35-7.434c0.898-2.241,2.155-4.15,3.768-5.729s3.514-2.8,5.703-3.666
			s4.573-1.298,7.153-1.298h9.013c2.682,0,5.135,0.441,7.358,1.324c2.223,0.883,4.132,2.122,5.728,3.717
			c1.596,1.596,2.834,3.505,3.718,5.728c0.882,2.224,1.323,4.677,1.323,7.358c0,2.682-0.45,5.177-1.349,7.485
			c-0.9,2.309-2.156,4.302-3.769,5.982s-3.521,3.004-5.729,3.972s-4.633,1.451-7.281,1.451H474.956z M483.968,107.379
			c1.697,0,3.259-0.306,4.685-0.916c1.426-0.611,2.656-1.451,3.691-2.521s1.842-2.351,2.419-3.845
			c0.577-1.493,0.866-3.106,0.866-4.837c0-1.731-0.289-3.335-0.866-4.812s-1.384-2.741-2.419-3.793
			c-1.035-1.052-2.266-1.875-3.691-2.47c-1.426-0.593-2.987-0.891-4.685-0.891h-9.013c-1.663,0-3.199,0.298-4.607,0.891
			c-1.409,0.594-2.622,1.418-3.641,2.47c-1.019,1.053-1.816,2.309-2.394,3.768c-0.577,1.46-0.865,3.072-0.865,4.837
			c0,1.731,0.288,3.344,0.865,4.837c0.577,1.494,1.375,2.775,2.394,3.845s2.231,1.909,3.641,2.521
			c1.408,0.61,2.944,0.916,4.607,0.916H483.968z"/>
		<path fill="#FFFFFF" d="M540.03,113.846l-9.369-10.285h-13.85v-5.703h15.428c2.343,0,4.107-0.637,5.296-1.91
			c1.188-1.273,1.782-3.114,1.782-5.524c0-2.41-0.62-4.201-1.858-5.372c-1.24-1.171-2.979-1.757-5.22-1.757h-20.163v30.551h-6.416
			V76.828h26.579c2.104,0,3.988,0.314,5.652,0.942c1.663,0.628,3.071,1.527,4.226,2.699c1.154,1.171,2.037,2.589,2.648,4.251
			c0.61,1.664,0.916,3.531,0.916,5.601c0,3.089-0.671,5.678-2.011,7.765c-1.342,2.088-3.217,3.59-5.627,4.506l11.151,11.253H540.03z
			"/>
		<path fill="#FFFFFF" d="M550.875,113.846v-6.467h27.75c1.731,0,3.063-0.44,3.997-1.323s1.4-2.054,1.4-3.514
			c0-1.595-0.467-2.792-1.4-3.59c-0.934-0.797-2.266-1.197-3.997-1.197h-17.007c-1.73,0-3.301-0.262-4.709-0.789
			c-1.409-0.526-2.598-1.255-3.564-2.189c-0.968-0.934-1.715-2.045-2.241-3.335c-0.526-1.29-0.789-2.699-0.789-4.226
			c0-1.493,0.246-2.877,0.738-4.15s1.223-2.368,2.189-3.284c0.968-0.917,2.164-1.637,3.59-2.164
			c1.426-0.526,3.056-0.789,4.889-0.789h26.579v6.466H561.72c-1.494,0-2.648,0.399-3.463,1.197c-0.814,0.798-1.222,1.91-1.222,3.335
			c0,1.426,0.415,2.529,1.247,3.31c0.832,0.781,1.961,1.171,3.387,1.171h16.955c3.769,0,6.628,0.883,8.58,2.648
			c1.952,1.765,2.928,4.447,2.928,8.045c0,1.562-0.237,3.004-0.713,4.328s-1.188,2.47-2.139,3.437
			c-0.95,0.968-2.147,1.724-3.59,2.267s-3.131,0.814-5.066,0.814H550.875z"/>
	</g>
</g>
</svg>
